<svg width="25" height="25" viewBox="0 0 25 25" fill="none" xmlns="http://www.w3.org/2000/svg">
<path d="M0.833359 0C0.612338 0 0.40037 0.0877973 0.244085 0.244078C0.0878001 0.400358 0 0.61232 0 0.833333C0 1.05435 0.0878001 1.26631 0.244085 1.42259C0.40037 1.57887 0.612338 1.66667 0.833359 1.66667H2.68342L3.35177 4.345L5.84851 17.6533C5.88426 17.8443 5.98561 18.0168 6.13504 18.1409C6.28447 18.2651 6.47259 18.3332 6.66687 18.3333H8.33359C7.44951 18.3333 6.60164 18.6845 5.9765 19.3096C5.35135 19.9348 5.00015 20.7826 5.00015 21.6667C5.00015 22.5507 5.35135 23.3986 5.9765 24.0237C6.60164 24.6488 7.44951 25 8.33359 25C9.21767 25 10.0655 24.6488 10.6907 24.0237C11.3158 23.3986 11.667 22.5507 11.667 21.6667C11.667 20.7826 11.3158 19.9348 10.6907 19.3096C10.0655 18.6845 9.21767 18.3333 8.33359 18.3333H20.0006C19.1165 18.3333 18.2687 18.6845 17.6435 19.3096C17.0184 19.9348 16.6672 20.7826 16.6672 21.6667C16.6672 22.5507 17.0184 23.3986 17.6435 24.0237C18.2687 24.6488 19.1165 25 20.0006 25C20.8847 25 21.7326 24.6488 22.3577 24.0237C22.9829 23.3986 23.3341 22.5507 23.3341 21.6667C23.3341 20.7826 22.9829 19.9348 22.3577 19.3096C21.7326 18.6845 20.8847 18.3333 20.0006 18.3333H21.6673C21.8616 18.3332 22.0497 18.2651 22.1992 18.1409C22.3486 18.0168 22.4499 17.8443 22.4857 17.6533L24.9858 4.32C25.0083 4.19973 25.004 4.07597 24.9733 3.95753C24.9426 3.83908 24.8862 3.72886 24.8081 3.63467C24.73 3.54049 24.6321 3.46467 24.5213 3.41258C24.4106 3.3605 24.2898 3.33345 24.1674 3.33333H4.81682L4.14179 0.631667C4.09681 0.451306 3.99281 0.291165 3.84634 0.176708C3.69986 0.0622511 3.51933 5.13525e-05 3.33344 0H0.833359ZM10.0003 21.6667C10.0003 22.1087 9.82471 22.5326 9.51214 22.8452C9.19957 23.1577 8.77563 23.3333 8.33359 23.3333C7.89155 23.3333 7.46761 23.1577 7.15504 22.8452C6.84247 22.5326 6.66687 22.1087 6.66687 21.6667C6.66687 21.2246 6.84247 20.8007 7.15504 20.4882C7.46761 20.1756 7.89155 20 8.33359 20C8.77563 20 9.19957 20.1756 9.51214 20.4882C9.82471 20.8007 10.0003 21.2246 10.0003 21.6667ZM21.6673 21.6667C21.6673 22.1087 21.4917 22.5326 21.1792 22.8452C20.8666 23.1577 20.4427 23.3333 20.0006 23.3333C19.5586 23.3333 19.1346 23.1577 18.8221 22.8452C18.5095 22.5326 18.3339 22.1087 18.3339 21.6667C18.3339 21.2246 18.5095 20.8007 18.8221 20.4882C19.1346 20.1756 19.5586 20 20.0006 20C20.4427 20 20.8666 20.1756 21.1792 20.4882C21.4917 20.8007 21.6673 21.2246 21.6673 21.6667ZM18.9239 8.92333L13.9238 13.9233C13.8464 14.0009 13.7544 14.0625 13.6531 14.1045C13.5519 14.1465 13.4434 14.1682 13.3337 14.1682C13.2241 14.1682 13.1156 14.1465 13.0143 14.1045C12.9131 14.0625 12.8211 14.0009 12.7437 13.9233L10.2436 11.4233C10.1662 11.3459 10.1047 11.2539 10.0628 11.1526C10.0208 11.0514 9.99926 10.9429 9.99926 10.8333C9.99926 10.7238 10.0208 10.6153 10.0628 10.514C10.1047 10.4128 10.1662 10.3208 10.2436 10.2433C10.3211 10.1659 10.4131 10.1044 10.5144 10.0625C10.6156 10.0205 10.7241 9.99895 10.8337 9.99895C10.9432 9.99895 11.0517 10.0205 11.153 10.0625C11.2542 10.1044 11.3462 10.1659 11.4237 10.2433L13.3337 12.155L17.7439 7.74333C17.8214 7.66585 17.9133 7.60439 18.0146 7.56246C18.1158 7.52053 18.2243 7.49895 18.3339 7.49895C18.4435 7.49895 18.552 7.52053 18.6532 7.56246C18.7544 7.60439 18.8464 7.66585 18.9239 7.74333C19.0014 7.82081 19.0629 7.91279 19.1048 8.01403C19.1467 8.11526 19.1683 8.22376 19.1683 8.33333C19.1683 8.44291 19.1467 8.55141 19.1048 8.65264C19.0629 8.75387 19.0014 8.84585 18.9239 8.92333Z" fill="#CDCDCD"/>
</svg>
