<svg width="25" height="25" viewBox="0 0 25 25" fill="none" xmlns="http://www.w3.org/2000/svg">
<path d="M21.875 0H3.125C1.39974 0 0 1.0498 0 2.34375V22.6562C0 23.9502 1.39974 25 3.125 25H21.875C23.6003 25 25 23.9502 25 22.6562V2.34375C25 1.0498 23.6003 0 21.875 0ZM21.875 22.6562H3.125V2.34375H21.875V22.6562ZM9.375 5.46875H15.625C16.1979 5.46875 16.6667 5.11719 16.6667 4.6875C16.6667 4.25781 16.1979 3.90625 15.625 3.90625H9.375C8.80208 3.90625 8.33333 4.25781 8.33333 4.6875C8.33333 5.11719 8.80208 5.46875 9.375 5.46875ZM12.5 14.0625C14.7982 14.0625 16.6667 12.6611 16.6667 10.9375C16.6667 9.21387 14.7982 7.8125 12.5 7.8125C10.2018 7.8125 8.33333 9.21387 8.33333 10.9375C8.33333 12.6611 10.2018 14.0625 12.5 14.0625ZM6.66667 20.3125H18.3333C19.1406 20.3125 19.7917 19.8926 19.7917 19.375V18.4375C19.7917 16.8848 17.832 15.625 15.4167 15.625C14.7135 15.625 14.1992 16.0156 12.5 16.0156C10.7487 16.0156 10.3255 15.625 9.58333 15.625C7.16797 15.625 5.20833 16.8848 5.20833 18.4375V19.375C5.20833 19.8926 5.85938 20.3125 6.66667 20.3125Z" fill="black"/>
</svg>
