<svg width="25" height="25" viewBox="0 0 25 25" fill="none" xmlns="http://www.w3.org/2000/svg">
<path d="M24.8872 9.50263C24.5868 8.58195 23.767 7.98706 22.7985 7.98706H16.5534L14.5868 2.01473C14.2845 1.09665 13.4663 0.504883 12.5007 0.504883C12.4976 0.504883 12.4944 0.504883 12.4914 0.504932C11.5218 0.50874 10.704 1.10783 10.408 2.03119L8.49864 7.98706H2.2015C1.23064 7.98706 0.410147 8.58395 0.111263 9.50766C-0.187671 10.4314 0.127618 11.3958 0.914522 11.9645L6.00958 15.6473L4.04842 21.6031C3.7449 22.5249 4.05491 23.4907 4.8382 24.0635C5.23161 24.3513 5.68316 24.4952 6.135 24.4952C6.58274 24.4952 7.03073 24.3538 7.42218 24.0708L12.5261 20.3817L17.5693 24.0646C18.3517 24.636 19.365 24.6387 20.1507 24.0718C20.9363 23.5048 21.2528 22.5423 20.9571 21.6196L19.0424 15.6473L24.0942 11.9582C24.8763 11.3871 25.1876 10.4233 24.8872 9.50263Z" fill="#CDCDCD"/>
</svg>
