<svg width="25" height="25" viewBox="0 0 25 25" fill="none" xmlns="http://www.w3.org/2000/svg">
<path d="M12.5017 0C8.93023 0 6.01074 2.91949 6.01074 6.49094C6.01074 10.0624 8.93023 12.9819 12.5017 12.9819C16.0731 12.9819 18.9926 10.0624 18.9926 6.49094C18.9926 2.91949 16.0731 0 12.5017 0Z" fill="#8DB11B"/>
<path d="M23.6412 18.1688C23.4712 17.7436 23.2444 17.3468 22.9893 16.9783C21.6855 15.0508 19.673 13.7753 17.4055 13.4635C17.122 13.4352 16.8102 13.4919 16.5835 13.6619C15.393 14.5406 13.9758 14.9941 12.5018 14.9941C11.0278 14.9941 9.61064 14.5406 8.42015 13.6619C8.19337 13.4919 7.88158 13.4068 7.59816 13.4635C5.33058 13.7753 3.28978 15.0508 2.01428 16.9783C1.75918 17.3468 1.5324 17.772 1.36237 18.1688C1.27736 18.3389 1.30568 18.5373 1.39069 18.7073C1.61747 19.1042 1.90089 19.501 2.15599 19.8411C2.5528 20.3797 2.97799 20.8615 3.45987 21.315C3.85668 21.7118 4.31018 22.0803 4.76374 22.4488C7.00294 24.1212 9.69571 24.9998 12.4735 24.9998C15.2513 24.9998 17.944 24.1211 20.1832 22.4488C20.6367 22.1087 21.0902 21.7118 21.4871 21.315C21.9406 20.8615 22.3941 20.3797 22.791 19.8411C23.0744 19.4726 23.3295 19.1042 23.5563 18.7073C23.6979 18.5373 23.7263 18.3388 23.6412 18.1688Z" fill="#8DB11B"/>
</svg>
